HIERARCHY
ROOT Hips
{
	OFFSET 0.000000 0.000000 0.000000
	CHANNELS 6 Xposition Yposition Zposition Zrotation Yrotation Xrotation 
	JOINT LHipJoint
	{
		OFFSET 0.000000 0.000000 0.000000
		CHANNELS 3 Zrotation Yrotation Xrotation
		JOINT LeftUpLeg
		{
			OFFSET 1.363060 -1.794630 0.839290
			CHANNELS 3 Zrotation Yrotation Xrotation
			JOINT LeftLeg
			{
				OFFSET 2.448110 -6.726130 0.000000
				CHANNELS 3 Zrotation Yrotation Xrotation
				JOINT LeftFoot
				{
					OFFSET 2.562200 -7.039590 0.000000
					CHANNELS 3 Zrotation Yrotation Xrotation
					JOINT LeftToeBase
					{
						OFFSET 0.157640 -0.433110 2.322550
						CHANNELS 3 Zrotation Yrotation Xrotation
						End Site
						{
							OFFSET 0.000000 0.000000 0.000000
						}
					}
				}
			}
		}
	}
	JOINT RHipJoint
	{
		OFFSET 0.000000 0.000000 0.000000
		CHANNELS 3 Zrotation Yrotation Xrotation
		JOINT RightUpLeg
		{
			OFFSET -1.305520 -1.794630 0.839290
			CHANNELS 3 Zrotation Yrotation Xrotation
			JOINT RightLeg
			{
				OFFSET -2.542530 -6.985550 0.000000
				CHANNELS 3 Zrotation Yrotation Xrotation
				JOINT RightFoot
				{
					OFFSET -2.568260 -7.056230 0.000000
					CHANNELS 3 Zrotation Yrotation Xrotation
					JOINT RightToeBase
					{
						OFFSET -0.164730 -0.452590 2.363150
						CHANNELS 3 Zrotation Yrotation Xrotation
						End Site
						{
							OFFSET 0.000000 0.000000 0.000000
						}
					}
				}
			}
		}
	}
	JOINT LowerBack
	{
		OFFSET 0.000000 0.000000 0.000000
		CHANNELS 3 Zrotation Yrotation Xrotation
		JOINT Spine
		{
			OFFSET 0.028270 2.035590 -0.193380
			CHANNELS 3 Zrotation Yrotation Xrotation
			JOINT Spine1
			{
				OFFSET 0.056720 2.048850 -0.042750
				CHANNELS 3 Zrotation Yrotation Xrotation
				JOINT Neck
				{
					OFFSET 0.000000 0.000000 0.000000
					CHANNELS 3 Zrotation Yrotation Xrotation
					JOINT Neck1
					{
						OFFSET -0.054170 1.746240 0.172020
						CHANNELS 3 Zrotation Yrotation Xrotation
						JOINT Head
						{
							OFFSET 0.104070 1.761360 -0.123970
							CHANNELS 3 Zrotation Yrotation Xrotation
							End Site
							{
								OFFSET 0.000000 0.000000 0.000000
							}
						}
					}
				}
				JOINT LeftShoulder
				{
					OFFSET 0.000000 0.000000 0.000000
					CHANNELS 3 Zrotation Yrotation Xrotation
					JOINT LeftArm
					{
						OFFSET 3.362410 1.200890 -0.311210
						CHANNELS 3 Zrotation Yrotation Xrotation
						JOINT LeftForeArm
						{
							OFFSET 4.983000 -0.000000 -0.000000
							CHANNELS 3 Zrotation Yrotation Xrotation
							JOINT LeftHand
							{
								OFFSET 3.483560 -0.000000 -0.000000
								CHANNELS 3 Zrotation Yrotation Xrotation
								JOINT LeftFingerBase
								{
									OFFSET 0.000000 0.000000 0.000000
									CHANNELS 3 Zrotation Yrotation Xrotation
									JOINT LeftHandIndex1
									{
										OFFSET 0.715260 -0.000000 -0.000000
										CHANNELS 3 Zrotation Yrotation Xrotation
										End Site
										{
											OFFSET 0.000000 0.000000 0.000000
										}
									}
								}
								JOINT LThumb
								{
									OFFSET 0.000000 0.000000 0.000000
									CHANNELS 3 Zrotation Yrotation Xrotation
									End Site
									{
										OFFSET 0.000000 0.000000 0.000000
									}
								}
							}
						}
					}
				}
				JOINT RightShoulder
				{
					OFFSET 0.000000 0.000000 0.000000
					CHANNELS 3 Zrotation Yrotation Xrotation
					JOINT RightArm
					{
						OFFSET -3.136600 1.374050 -0.404650
						CHANNELS 3 Zrotation Yrotation Xrotation
						JOINT RightForeArm
						{
							OFFSET -5.241900 -0.000000 -0.000000
							CHANNELS 3 Zrotation Yrotation Xrotation
							JOINT RightHand
							{
								OFFSET -3.444170 -0.000000 -0.000000
								CHANNELS 3 Zrotation Yrotation Xrotation
								JOINT RightFingerBase
								{
									OFFSET 0.000000 0.000000 0.000000
									CHANNELS 3 Zrotation Yrotation Xrotation
									JOINT RightHandIndex1
									{
										OFFSET -0.622530 -0.000000 -0.000000
										CHANNELS 3 Zrotation Yrotation Xrotation
										End Site
										{
											OFFSET 0.000000 0.000000 0.000000
										}
									}
								}
								JOINT RThumb
								{
									OFFSET 0.000000 0.000000 0.000000
									CHANNELS 3 Zrotation Yrotation Xrotation
									End Site
									{
										OFFSET 0.000000 0.000000 0.000000
									}
								}
							}
						}
					}
				}
			}
		}
	}
}
MOTION
Frames: 6
Frame Time: 0.033333
-2.071092 16.621216 23.399628 0.872570 4.816315 10.723967 -7.296125 4.908425 -4.250115 -14.142039 -2.147964 -5.378474 -7.656689 -13.117590 -35.013538 0.293969 12.951090 26.671591 0.000000 0.000000 0.000000 14.415155 0.852737 -1.827993 -0.073707 -1.081167 -4.287839 3.896913 -26.788136 45.017312 13.386509 -20.885855 1.784594 0.000000 0.000000 0.000000 -5.576192 -0.828249 15.220264 3.651603 -1.001700 -5.059867 1.766142 -0.365940 -6.123106 -2.016283 0.509728 -0.849276 4.844407 -0.185690 5.858917 0.000000 0.000000 0.000000 7.595663 12.924736 7.695953 -71.236207 -5.527795 24.353254 -25.395446 -74.660537 0.600571 -0.199519 -14.737876 0.295962 -0.183052 -14.746820 0.000000 0.000000 0.000000 0.000000 0.000000 0.000000 0.000000 -3.930101 -17.259465 5.956468 66.169607 6.055908 19.510998 25.958123 67.345342 0.342965 0.495985 11.107554 0.170055 0.488850 11.112041 0.000000 0.000000 0.000000 0.000000 0.000000 0.000000 0.000000 
-2.086918 16.644953 23.593695 1.124639 4.645328 10.930403 -6.915646 4.783618 -4.592801 -14.845206 -1.873757 -4.765923 -7.325326 -12.831874 -34.348900 0.152107 11.953535 24.541476 0.000000 0.000000 0.000000 14.410109 0.824045 -1.607059 -0.179833 -1.036341 -4.308055 3.536598 -26.614982 44.925927 13.821252 -22.465154 4.154147 0.000000 0.000000 0.000000 -5.713705 -0.680885 15.469698 3.385417 -1.042269 -4.758333 1.753781 -0.304070 -6.762460 -2.473721 0.558757 -0.061047 4.974367 -0.233063 6.344191 0.000000 0.000000 0.000000 7.681251 13.561672 7.426296 -71.149782 -5.687551 25.033697 -26.345093 -74.157566 0.627077 -0.422709 -14.718624 0.309398 -0.410523 -14.728433 0.000000 0.000000 0.000000 0.000000 0.000000 0.000000 0.000000 -3.573981 -18.050470 5.555293 65.796068 5.993457 20.098973 26.314250 67.440267 0.354759 0.591212 11.168791 0.175957 0.585095 11.173503 0.000000 0.000000 0.000000 0.000000 0.000000 0.000000 0.000000 
-2.100346 16.671725 23.786446 1.370733 4.469215 11.134573 -6.544335 4.677135 -4.954840 -15.543742 -1.610065 -4.198145 -7.020548 -12.497937 -33.557696 0.034806 10.941053 22.354749 0.000000 0.000000 0.000000 14.422388 0.744453 -1.333927 -0.311260 -0.981902 -4.380516 3.190858 -26.411950 44.770385 14.222110 -24.053156 6.476740 0.000000 0.000000 0.000000 -5.860581 -0.529783 15.688664 3.168983 -1.071947 -4.515606 1.718916 -0.236647 -7.337360 -2.822305 0.597370 0.656906 5.051263 -0.272328 6.737955 0.000000 0.000000 0.000000 7.728124 14.135648 7.177257 -71.068138 -5.842761 25.656712 -27.320914 -73.582138 0.652422 -0.640628 -14.682178 0.322261 -0.632647 -14.692761 0.000000 0.000000 0.000000 0.000000 0.000000 0.000000 0.000000 -3.311367 -18.734248 5.200181 65.514840 5.880927 20.724198 26.496525 67.794363 0.367921 0.666707 11.276372 0.182520 0.661422 11.281309 0.000000 0.000000 0.000000 0.000000 0.000000 0.000000 0.000000 
-2.110172 16.701012 23.977165 1.612249 4.291514 11.334994 -6.186288 4.590969 -5.333364 -16.234087 -1.359894 -3.678706 -6.756211 -12.118356 -32.640515 -0.058861 9.922273 20.125201 0.000000 0.000000 0.000000 14.448383 0.613134 -1.010762 -0.467386 -0.917569 -4.504202 2.855661 -26.179824 44.560502 14.581391 -25.632992 8.730390 0.000000 0.000000 0.000000 -6.007997 -0.373973 15.875048 2.989416 -1.092416 -4.316355 1.657198 -0.164790 -7.858200 -3.076543 0.628595 1.309925 5.093799 -0.304330 7.060205 0.000000 0.000000 0.000000 7.741060 14.647666 6.947260 -70.986569 -5.996960 26.219644 -28.325500 -72.929641 0.676501 -0.853261 -14.626906 0.334500 -0.849393 -14.638174 0.000000 0.000000 0.000000 0.000000 0.000000 0.000000 0.000000 -3.136318 -19.321849 4.883571 65.329435 5.712327 21.387872 26.503247 68.402519 0.382588 0.723101 11.429799 0.189813 0.718486 11.434968 0.000000 0.000000 0.000000 0.000000 0.000000 0.000000 0.000000 
-2.116377 16.732313 24.165204 1.849985 4.115354 11.530462 -5.844384 4.527381 -5.725484 -16.913481 -1.125903 -3.211008 -6.534554 -11.695690 -31.600690 -0.130661 8.903408 17.868046 0.000000 0.000000 0.000000 14.484929 0.428183 -0.639358 -0.646848 -0.841876 -4.678412 2.536122 -25.921030 44.303247 14.897792 -27.192156 10.892348 0.000000 0.000000 0.000000 -6.149142 -0.212505 16.026650 2.838516 -1.104027 -4.149776 1.563856 -0.089348 -8.332469 -3.244787 0.654034 1.901706 5.113823 -0.329921 7.325424 0.000000 0.000000 0.000000 7.722602 15.096800 6.735269 -70.901107 -6.152735 26.717477 -29.363574 -72.192109 0.699143 -1.060743 -14.550269 0.346028 -1.060878 -14.562133 0.000000 0.000000 0.000000 0.000000 0.000000 0.000000 0.000000 -3.047172 -19.819309 4.598788 65.245961 5.480501 22.088164 26.324148 69.265720 0.398834 0.759474 11.629334 0.197872 0.755368 11.634745 0.000000 0.000000 0.000000 0.000000 0.000000 0.000000 0.000000 
-2.121740 16.762905 24.346703 2.071207 3.939522 11.701512 -5.534586 4.460558 -6.097328 -17.538373 -0.891839 -2.761504 -6.308904 -11.272816 -30.586225 -0.179107 7.961081 15.720105 0.000000 0.000000 0.000000 14.553343 0.289792 -0.289355 -0.852799 -0.823892 -4.800961 2.217968 -25.671959 44.006215 15.145679 -28.691882 12.951294 0.000000 0.000000 0.000000 -6.312306 -0.081547 16.156771 2.724469 -1.109847 -4.030485 1.497938 -0.035190 -8.654604 -3.354425 0.675797 2.323311 5.122432 -0.348568 7.525785 0.000000 0.000000 0.000000 7.774265 15.393834 6.569766 -70.860329 -6.313433 27.101753 -29.888295 -71.862642 0.713873 -1.167146 -14.538020 0.353472 -1.169390 -14.550238 0.000000 0.000000 0.000000 0.000000 0.000000 0.000000 0.000000 -3.061372 -20.160376 4.343962 65.288671 5.270291 22.743228 25.985487 70.263504 0.414772 0.771495 11.844762 0.205760 0.767698 11.850399 0.000000 0.000000 0.000000 0.000000 0.000000 0.000000 0.000000 
